<svg width="16" height="16" xmlns="http://www.w3.org/2000/svg">

 <g>
  <path id="svg_1" d="m5.68359,1.96094l-0.26953,0.04687c-0.074,0.013 -1.83609,0.32913 -3.24609,1.45313c-0.817,0.746 -2.16797,4.81206 -2.16797,8.03906l0,0.13477l0.06641,0.11523c1.026,1.783 3.80904,2.229 4.49804,2.25l0.28321,0.00977l1.05859,-1.65039l-0.06445,-0.04102c0.596,0.103 1.3052,0.18164 2.1582,0.18164c0.827,0 1.51852,-0.07287 2.10352,-0.17187l1.04296,1.67968l0.28907,-0.00781c0.689,-0.021 3.47204,-0.467 4.49804,-2.25l0.06641,-0.11523l0,-0.13477c0,-3.227 -1.35041,-7.29355 -2.19141,-8.06055c-1.385,-1.101 -3.1467,-1.41864 -3.2207,-1.43164l-0.26953,-0.04687l-0.18555,0.19922c-0.051,0.054 -0.44492,0.49993 -0.66992,0.96093c-0.666,-0.105 -1.20789,-0.12109 -1.46289,-0.12109c-0.254,0 -0.79498,0.01905 -1.45898,0.12305c-0.226,-0.461 -0.62283,-0.90889 -0.67383,-0.96289l-0.1836,-0.19922zm-0.36914,1.09375c0.078,0.098 0.15757,0.2074 0.22657,0.3164c0.179,0.331 0.32064,0.59977 0.43164,0.88477c0.963,-0.237 1.79834,-0.25586 2.02734,-0.25586c0.232,0 1.09317,0.01958 2.07617,0.26758l0.41211,-0.92774c-0.003,-0.001 -0.00481,-0.00095 -0.00781,-0.00195c0.064,-0.097 0.13412,-0.1952 0.20312,-0.2832c0.504,0.125 1.60666,0.45653 2.47266,1.14453c0.439,0.401 1.8028,3.91115 1.8418,7.16016c-0.696,1.041 -2.45646,1.51018 -3.31446,1.61718l-0.54101,-0.87109c0.707,-0.2 1.07451,-0.40292 1.10351,-0.41992l-0.49023,-0.87305c-0.013,0.007 -1.27186,0.6875 -3.75586,0.6875c-2.484,0 -3.74286,-0.6805 -3.75586,-0.6875l-0.49023,0.87305c0.029,0.017 0.406,0.22183 1.125,0.42383l-0.5586,0.86718c-0.855,-0.106 -2.62136,-0.57419 -3.31836,-1.61718c0.039,-3.248 1.40046,-6.75772 1.81446,-7.13672c0.886,-0.705 1.99304,-1.04297 2.49804,-1.16797zm-0.06445,2.94531c-0.965,0 -1.75,0.897 -1.75,2c0,1.103 0.785,2 1.75,2c0.965,0 1.75,-0.897 1.75,-2c0,-1.103 -0.785,-2 -1.75,-2zm5.5,0c-0.965,0 -1.75,0.897 -1.75,2c0,1.103 0.785,2 1.75,2c0.965,0 1.75,-0.897 1.75,-2c0,-1.103 -0.785,-2 -1.75,-2zm-5.5,1c0.406,0 0.75,0.458 0.75,1c0,0.542 -0.344,1 -0.75,1c-0.406,0 -0.75,-0.458 -0.75,-1c0,-0.542 0.344,-1 0.75,-1zm5.5,0c0.406,0 0.75,0.458 0.75,1c0,0.542 -0.344,1 -0.75,1c-0.406,0 -0.75,-0.458 -0.75,-1c0,-0.542 0.344,-1 0.75,-1z"/>
  <line stroke-width="2" stroke-linecap="undefined" stroke-linejoin="undefined" id="svg_2" y2="14.48302" x2="1.372" y1="1.51698" x1="14.628" stroke="#000" fill="none"/>
 </g>
</svg>