<?xml version="1.0" encoding="UTF-8" standalone="no"?>
<!-- Created with Inkscape (http://www.inkscape.org/) -->

<svg
   version="1.1"
   id="svg1"
   width="63.999996"
   height="64"
   viewBox="0 0 63.999997 64"
   sodipodi:docname="radarr.svg"
   xml:space="preserve"
   inkscape:version="1.3.2 (091e20ef0f, 2023-11-25, custom)"
   xmlns:inkscape="http://www.inkscape.org/namespaces/inkscape"
   xmlns:sodipodi="http://sodipodi.sourceforge.net/DTD/sodipodi-0.dtd"
   xmlns="http://www.w3.org/2000/svg"
   xmlns:svg="http://www.w3.org/2000/svg"><defs
     id="defs1" /><sodipodi:namedview
     id="namedview1"
     pagecolor="#ffffff"
     bordercolor="#000000"
     borderopacity="0.25"
     inkscape:showpageshadow="2"
     inkscape:pageopacity="0.0"
     inkscape:pagecheckerboard="0"
     inkscape:deskcolor="#d1d1d1"
     inkscape:zoom="13.63956"
     inkscape:cx="22.288109"
     inkscape:cy="33.578796"
     inkscape:window-width="3440"
     inkscape:window-height="1368"
     inkscape:window-x="0"
     inkscape:window-y="0"
     inkscape:window-maximized="1"
     inkscape:current-layer="g1" /><g
     inkscape:groupmode="layer"
     inkscape:label="Image"
     id="g1"
     transform="translate(-170.13344,-1118.5512)"><g
       id="g9"
       transform="matrix(0.0625,0,0,0.0625,159.5001,1107.8812)"><path
         style="display:inline;fill:#ffb700;fill-opacity:1"
         d="m 481.47012,867.98256 c 0.34519,-10.86942 2.01304,-101.88759 3.70634,-202.26259 1.69329,-100.375 3.38882,-184.19884 3.76785,-186.27521 l 0.68913,-3.77521 179.19054,100.77521 c 133.86496,75.28449 178.8894,101.0551 178,101.88174 -0.6548,0.6086 -83.2685,47.97676 -183.58601,105.2626 L 480.84251,887.74516 Z"
         id="path13" /><path
         style="display:inline;fill:#23282d"
         d="m 426.13344,1172.6827 c -44.02002,-5.3985 -88.40537,-28.0612 -113.25435,-57.8264 -7.18984,-8.6123 -11.14335,-14.072 -10.59036,-14.625 0.20541,-0.2054 3.517,0.5112 7.35909,1.5923 33.5291,9.4352 73.93852,5.1268 106.54414,-11.3595 5.74281,-2.9037 149.42579,-86.6587 319.2955,-186.12209 C 995.47044,752.11478 1044.555,723.71468 1045.6907,724.8597 c 2.6297,2.65129 11.3133,17.99761 14.4576,25.55064 10.6045,25.47302 10.8229,51.41247 0.6133,72.80963 -5.7439,12.03793 -16.5226,24.51623 -27.9915,32.40538 -5.578,3.83695 -516.44311,299.96405 -524.46518,304.01045 -8.72792,4.4025 -24.90051,9.6472 -35.67148,11.5681 -10.87856,1.9401 -36.17785,2.7446 -46.5,1.4788 z M 312.18472,1059.6299 c -35.56793,-7.5946 -57.58602,-30.6321 -63.01381,-65.93106 -0.92784,-6.03411 -7.84834,-509.05782 -8.1856,-594.97887 -0.15505,-39.50021 0.58077,-48.67451 5.76534,-71.88318 15.48469,-69.31712 62.94693,-117.78184 128.41016,-131.1224 46.52619,-9.48143 95.87762,0.23203 137.47263,27.05769 4.95,3.19238 128.21353,74.64039 273.91897,158.77335 145.70543,84.13297 267.65539,154.92777 270.99999,157.32179 8.7248,6.24511 28.1194,25.99434 34.7206,35.35538 21.5172,30.51315 31.8486,62.95145 31.8486,99.99737 0,23.78722 -3.8297,43.65825 -12.2118,63.36322 -3.8461,9.04157 -6.7764,14.57722 -6.7764,12.80158 0,-0.42911 -0.9447,-5.33909 -2.0993,-10.91106 -4.2672,-20.59249 -12.2726,-39.21284 -23.6557,-55.02265 -7.1987,-9.99808 -26.0457,-28.22353 -38.3681,-37.10278 -5.8829,-4.2391 -125.39582,-72.07637 -311.95661,-177.07114 C 562.72255,376.66745 423.28722,298.11005 419.1974,295.70513 c -11.47685,-6.74866 -24.78259,-10.9653 -34.63582,-10.97622 -10.11655,-0.0112 -15.9197,1.91114 -22.04453,7.30242 -8.71487,7.67114 -13.92155,19.20302 -16.35792,36.22988 -0.87875,6.14126 -0.27958,90.56078 2.62373,369.66945 2.06939,198.94088 3.40862,362.06584 2.97605,362.50004 -0.43256,0.4341 -7.38775,0.8855 -15.45597,1.003 -11.54101,0.1682 -16.68458,-0.2165 -24.11822,-1.8038 z"
         id="path9" /></g></g></svg>
