<svg width="64" height="64" xmlns="http://www.w3.org/2000/svg"><path d="M19.459 43.579c.021-.68.125-6.368.231-12.642.106-6.273.212-11.512.236-11.642l.043-.236 11.2 6.299c8.366 4.705 11.18 6.316 11.124 6.367-.04.038-5.204 2.999-11.474 6.58l-11.4 6.51z" fill="#0ff"/><path d="M16 62.623c-2.751-.338-5.525-1.754-7.078-3.614-.45-.539-.697-.88-.662-.915.013-.012.22.032.46.1 2.095.59 4.62.32 6.659-.71.359-.181 9.339-5.416 19.956-11.633 16.249-9.514 19.316-11.289 19.387-11.217.165.165.707 1.125.904 1.597.663 1.592.676 3.213.038 4.55-.359.753-1.032 1.533-1.75 2.026-.348.24-32.277 18.747-32.778 19-.546.275-1.557.603-2.23.723-.68.121-2.26.172-2.906.093zm-7.122-7.066c-2.223-.475-3.599-1.915-3.938-4.12-.058-.378-.49-31.817-.512-37.187-.01-2.469.037-3.042.36-4.493.968-4.332 3.935-7.361 8.026-8.195 2.908-.592 5.993.015 8.592 1.691.31.2 8.014 4.665 17.12 9.924 9.107 5.258 16.729 9.683 16.938 9.832.545.39 1.757 1.625 2.17 2.21 1.345 1.907 1.99 3.934 1.99 6.25 0 1.486-.24 2.728-.763 3.96-.24.565-.424.911-.424.8 0-.027-.059-.334-.13-.682-.267-1.287-.768-2.45-1.48-3.439-.45-.625-1.627-1.764-2.397-2.319-.368-.265-7.837-4.505-19.497-11.067-10.396-5.85-19.11-10.76-19.367-10.91-.717-.422-1.548-.686-2.164-.686-.633-.001-.995.119-1.378.456-.545.48-.87 1.2-1.022 2.264-.055.384-.018 5.66.164 23.105.129 12.433.213 22.629.186 22.656-.027.027-.462.055-.966.063-.722.01-1.043-.014-1.508-.113z" fill="#23282d"/></svg>