<svg xmlns="http://www.w3.org/2000/svg"  viewBox="0 0 16 16" width="16px" height="16px"><path d="M 5.6835938 1.9609375 L 5.4140625 2.0078125 C 5.3400625 2.0208125 3.5779687 2.3369375 2.1679688 3.4609375 C 1.3509687 4.2069375 0 8.273 0 11.5 L 0 11.634766 L 0.06640625 11.75 C 1.0924063 13.533 3.8754531 13.979 4.5644531 14 L 4.8476562 14.009766 L 5.90625 12.359375 L 5.8417969 12.318359 C 6.4377969 12.421359 7.147 12.5 8 12.5 C 8.827 12.5 9.5185156 12.427125 10.103516 12.328125 L 11.146484 14.007812 L 11.435547 14 C 12.124547 13.979 14.907594 13.533 15.933594 11.75 L 16 11.634766 L 16 11.5 C 16 8.273 14.649594 4.2064531 13.808594 3.4394531 C 12.423594 2.3384531 10.661891 2.0208125 10.587891 2.0078125 L 10.318359 1.9609375 L 10.132812 2.1601562 C 10.081812 2.2141562 9.6878906 2.6600938 9.4628906 3.1210938 C 8.7968906 3.0160938 8.255 3 8 3 C 7.746 3 7.2050156 3.0190469 6.5410156 3.1230469 C 6.3150156 2.6620469 5.9181875 2.2141562 5.8671875 2.1601562 L 5.6835938 1.9609375 z M 5.3144531 3.0546875 C 5.3924531 3.1526875 5.4720156 3.2620937 5.5410156 3.3710938 C 5.7200156 3.7020937 5.8616563 3.9708594 5.9726562 4.2558594 C 6.9356562 4.0188594 7.771 4 8 4 C 8.232 4 9.0931719 4.0195781 10.076172 4.2675781 L 10.488281 3.3398438 C 10.485281 3.3388438 10.483469 3.3388906 10.480469 3.3378906 C 10.544469 3.2408906 10.614594 3.1426875 10.683594 3.0546875 C 11.187594 3.1796875 12.29025 3.5112188 13.15625 4.1992188 C 13.59525 4.6002187 14.959047 8.110375 14.998047 11.359375 C 14.302047 12.400375 12.541594 12.869562 11.683594 12.976562 L 11.142578 12.105469 C 11.849578 11.905469 12.217094 11.702547 12.246094 11.685547 L 11.755859 10.8125 C 11.742859 10.8195 10.484 11.5 8 11.5 C 5.516 11.5 4.2571406 10.8195 4.2441406 10.8125 L 3.7539062 11.685547 C 3.7829062 11.702547 4.1599062 11.907375 4.8789062 12.109375 L 4.3203125 12.976562 C 3.4653125 12.870563 1.6989531 12.402375 1.0019531 11.359375 C 1.0409531 8.111375 2.4024062 4.6016562 2.8164062 4.2226562 C 3.7024063 3.5176562 4.8094531 3.1796875 5.3144531 3.0546875 z M 5.25 6 C 4.285 6 3.5 6.897 3.5 8 C 3.5 9.103 4.285 10 5.25 10 C 6.215 10 7 9.103 7 8 C 7 6.897 6.215 6 5.25 6 z M 10.75 6 C 9.785 6 9 6.897 9 8 C 9 9.103 9.785 10 10.75 10 C 11.715 10 12.5 9.103 12.5 8 C 12.5 6.897 11.715 6 10.75 6 z M 5.25 7 C 5.656 7 6 7.458 6 8 C 6 8.542 5.656 9 5.25 9 C 4.844 9 4.5 8.542 4.5 8 C 4.5 7.458 4.844 7 5.25 7 z M 10.75 7 C 11.156 7 11.5 7.458 11.5 8 C 11.5 8.542 11.156 9 10.75 9 C 10.344 9 10 8.542 10 8 C 10 7.458 10.344 7 10.75 7 z"/></svg>