<svg xmlns="http://www.w3.org/2000/svg" fill="currentColor" class="prefix__svg-icon" overflow="hidden" style="width:1em;height:1em;vertical-align:middle" viewBox="0 0 1024 1024">
  <path d="M512 528.7c-24.5 0-44.5-20-44.5-44.5v-384a44.6 44.6 0 0 1 89 0v384a44 44 0 0 1-44.5 44.5m423 14.5a423 423 0 0 0-235-380.7 44.7 44.7 0 1 0-40.1 80.1 334 334 0 0 1 186 300.6c0 185.8-150.3 336.1-334 336.1S178 729 178 543.2a335 335 0 0 1 186-301.7 44.6 44.6 0 0 0 20-60 44.6 44.6 0 0 0-60.1-20.1A426 426 0 0 0 89 543.2C89 778 278.3 968.3 512 968.3S935 778 935 543.2" />
</svg>